<svg xmlns="http://www.w3.org/2000/svg" xmlns:xlink="http://www.w3.org/1999/xlink" width="253pt" height="480" viewBox="0 0 253.08 360"><g id="graph0" class="graph" transform="scale(.1909 .1909) rotate(0) translate(4 1882)"><title>finite_state_machine</title><polygon fill="#fff" stroke="transparent" points="-4 4 -4 -1882 1321.859 -1882 1321.859 4 -4 4"/><g id="node1" class="node"><title>i</title><polygon fill="none" stroke="#000" points="144 -618 0 -618 0 -582 144 -582 144 -618"/><text x="72" y="-595.8" fill="#000" font-family="Times,serif" font-size="14" text-anchor="middle">i</text></g><g id="node2" class="node"><title>EFSVIUDM</title><polygon fill="none" stroke="#000" points="325 -618 181 -618 181 -582 325 -582 325 -618"/><text x="253" y="-595.8" fill="#000" font-family="Times,serif" font-size="14" text-anchor="middle">EFSVIUDM</text></g><g id="edge1" class="edge"><title>i-&gt;EFSVIUDM</title><path fill="none" stroke="#000" d="M144.0561,-600C152.8663,-600 161.92,-600 170.8638,-600"/><polygon fill="#000" stroke="#000" points="170.896 -603.5 180.896 -600 170.896 -596.5 170.896 -603.5"/></g><g id="node3" class="node"><title>EWSIUD</title><polygon fill="none" stroke="#000" points="578.851 -829 434.851 -829 434.851 -793 578.851 -793 578.851 -829"/><text x="506.851" y="-806.8" fill="#000" font-family="Times,serif" font-size="14" text-anchor="middle">EWSIUD</text></g><g id="edge2" class="edge"><title>EFSVIUDM-&gt;EWSIUD</title><path fill="none" stroke="#000" d="M275.0836,-618.3558C320.7692,-656.3294 425.6865,-743.5362 477.2067,-786.3595"/><polygon fill="#000" stroke="#000" points="475.072 -789.136 485 -792.837 479.547 -783.753 475.072 -789.136"/><text x="343" y="-735.2" fill="#00f" font-family="Times,serif" font-size="14" text-anchor="start">express-from</text></g><g id="node5" class="node"><title>SUD</title><polygon fill="none" stroke="#000" points="1099.753 -1167 955.753 -1167 955.753 -1131 1099.753 -1131 1099.753 -1167"/><text x="1027.753" y="-1144.8" fill="#000" font-family="Times,serif" font-size="14" text-anchor="middle">SUD</text></g><g id="edge39" class="edge"><title>EFSVIUDM-&gt;SUD</title><path fill="none" stroke="#000" d="M259.1974,-618.218C287.1715,-698.3691 408.5502,-1024.6994 596.8514,-1229 702.977,-1344.1429 803.5031,-1398.6063 937.7534,-1318 988.8986,-1287.2915 1012.565,-1216.5848 1022.1446,-1177.0509"/><polygon fill="#000" stroke="#000" points="1025.568 -1177.778 1024.385 -1167.25 1018.744 -1176.219 1025.568 -1177.778"/><text x="620.171" y="-1307.2" fill="#00f" font-family="Times,serif" font-size="14" text-anchor="start">where</text></g><g id="node6" class="node"><title>M</title><polygon fill="none" stroke="#000" points="578.851 -36 434.851 -36 434.851 0 578.851 0 578.851 -36"/><text x="506.851" y="-13.8" fill="#000" font-family="Times,serif" font-size="14" text-anchor="middle">M</text></g><g id="edge5" class="edge"><title>EFSVIUDM-&gt;M</title><path fill="none" stroke="#000" d="M254.1449,-581.738C259.4957,-501.4214 284.2961,-180.09 343,-101.2 357.0768,-82.2828 409.5279,-57.4717 451.3435,-39.8806"/><polygon fill="#000" stroke="#000" points="452.738 -43.091 460.627 -36.019 450.05 -36.628 452.738 -43.091"/><text x="377.98" y="-106.2" fill="#00f" font-family="Times,serif" font-size="14" text-anchor="start">l</text></g><g id="edge7" class="edge"><title>EFSVIUDM-&gt;M</title><path fill="none" stroke="#000" d="M254.6013,-581.698C262.8843,-488.9809 302.0604,-74.0086 343,-35.2 364.447,-14.8693 395.2711,-8.1475 424.41,-7.3612"/><polygon fill="#000" stroke="#000" points="424.643 -10.86 434.628 -7.318 424.614 -3.861 424.643 -10.86"/><text x="369.435" y="-40.2" fill="#00f" font-family="Times,serif" font-size="14" text-anchor="start">raw</text></g><g id="node7" class="node"><title>SIUD</title><polygon fill="none" stroke="#000" points="839.687 -698 695.687 -698 695.687 -662 839.687 -662 839.687 -698"/><text x="767.687" y="-675.8" fill="#000" font-family="Times,serif" font-size="14" text-anchor="middle">SIUD</text></g><g id="edge9" class="edge"><title>EFSVIUDM-&gt;SIUD</title><path fill="none" stroke="#000" d="M325.107,-611.2079C419.9261,-625.946 586.1174,-651.7778 685.6415,-667.2473"/><polygon fill="#000" stroke="#000" points="685.235 -670.726 695.654 -668.804 686.31 -663.809 685.235 -670.726"/><text x="494.408" y="-655.2" fill="#00f" font-family="Times,serif" font-size="14" text-anchor="start">with</text></g><g id="edge19" class="edge"><title>EFSVIUDM-&gt;SIUD</title><path fill="none" stroke="#000" d="M325.2635,-595.2772C391.7977,-592.519 492.9062,-592.3618 578.8514,-609.2 629.373,-619.0981 684.1558,-640.9829 721.6375,-657.8194"/><polygon fill="#000" stroke="#000" points="720.229 -661.024 730.781 -661.981 723.129 -654.653 720.229 -661.024"/><text x="493.245" y="-614.2" fill="#00f" font-family="Times,serif" font-size="14" text-anchor="start">from</text></g><g id="edge29" class="edge"><title>EFSVIUDM-&gt;SIUD</title><path fill="none" stroke="#000" d="M325.0051,-583.9602C391.3622,-571.618 492.3555,-559.0175 578.8514,-574.2 624.8679,-582.2772 636.783,-587.426 677.6874,-610 700.3257,-622.4934 723.2937,-640.4623 740.3609,-655.0662"/><polygon fill="#000" stroke="#000" points="738.398 -657.998 748.238 -661.926 742.995 -652.719 738.398 -657.998"/><text x="490.138" y="-579.2" fill="#00f" font-family="Times,serif" font-size="14" text-anchor="start">return</text></g><g id="node8" class="node"><title>SV</title><polygon fill="none" stroke="#000" points="1099.753 -1776 955.753 -1776 955.753 -1740 1099.753 -1740 1099.753 -1776"/><text x="1027.753" y="-1753.8" fill="#000" font-family="Times,serif" font-size="14" text-anchor="middle">SV</text></g><g id="edge48" class="edge"><title>EFSVIUDM-&gt;SV</title><path fill="none" stroke="#000" d="M253.7046,-618.1665C259.4169,-763.2679 299.0521,-1729.6523 343,-1771 519.8192,-1937.3575 850.1788,-1830.0782 976.6762,-1779.8311"/><polygon fill="#000" stroke="#000" points="978.169 -1783.004 986.141 -1776.026 975.558 -1776.509 978.169 -1783.004"/><text x="622.501" y="-1864.2" fill="#00f" font-family="Times,serif" font-size="14" text-anchor="start">order</text></g><g id="edge55" class="edge"><title>EFSVIUDM-&gt;SV</title><path fill="none" stroke="#000" d="M253.7754,-618.4365C259.8789,-761.5599 301.0539,-1690.699 343,-1731 426.9278,-1811.6362 782.5405,-1784.7875 945.5327,-1767.6487"/><polygon fill="#000" stroke="#000" points="945.94 -1771.125 955.513 -1766.586 945.199 -1764.165 945.94 -1771.125"/><text x="624.043" y="-1790.2" fill="#00f" font-family="Times,serif" font-size="14" text-anchor="start">limit</text></g><g id="edge62" class="edge"><title>EFSVIUDM-&gt;SV</title><path fill="none" stroke="#000" d="M253.1406,-618.2448C254.3629,-754.2132 265.1135,-1606.3747 343,-1686 424.8213,-1769.648 781.9698,-1767.465 945.48,-1761.8087"/><polygon fill="#000" stroke="#000" points="945.623 -1765.306 955.491 -1761.45 945.372 -1758.31 945.623 -1765.306"/><text x="621.334" y="-1765.2" fill="#00f" font-family="Times,serif" font-size="14" text-anchor="start">offset</text></g><g id="node9" class="node"><title>S</title><polygon fill="none" stroke="#000" points="1317.859 -1341 1173.859 -1341 1173.859 -1305 1317.859 -1305 1317.859 -1341"/><text x="1245.859" y="-1318.8" fill="#000" font-family="Times,serif" font-size="14" text-anchor="middle">S</text></g><g id="edge69" class="edge"><title>EFSVIUDM-&gt;S</title><path fill="none" stroke="#000" d="M253.3225,-618.0968C255.8232,-749.3895 273.8996,-1552.9335 343,-1633 391.9088,-1689.6705 431.9941,-1672 506.8514,-1672 506.8514,-1672 506.8514,-1672 897.7204,-1672 955.7691,-1672 1114.6969,-1672.9312 1155.8586,-1632 1196.1936,-1591.8909 1229.2995,-1420.1191 1241.1609,-1351.49"/><polygon fill="#000" stroke="#000" points="1244.651 -1351.843 1242.88 -1341.397 1237.751 -1350.667 1244.651 -1351.843"/><text x="751.357" y="-1676.2" fill="#00f" font-family="Times,serif" font-size="14" text-anchor="start">group</text></g><g id="edge76" class="edge"><title>EFSVIUDM-&gt;S</title><path fill="none" stroke="#000" d="M256.4437,-618.3614C279.9412,-737.5344 428.7802,-1402.6345 857.6874,-1601 978.6577,-1656.9476 1073.1701,-1673.5303 1155.8586,-1569 1209.0864,-1501.7123 1232.7401,-1400.0002 1241.5014,-1351.1442"/><polygon fill="#000" stroke="#000" points="1244.953 -1351.726 1243.195 -1341.278 1238.054 -1350.542 1244.953 -1351.726"/><text x="748.635" y="-1592.2" fill="#00f" font-family="Times,serif" font-size="14" text-anchor="start">having</text></g><g id="node10" class="node"><title>I</title><polygon fill="none" stroke="#000" points="1099.753 -272 955.753 -272 955.753 -236 1099.753 -236 1099.753 -272"/><text x="1027.753" y="-249.8" fill="#000" font-family="Times,serif" font-size="14" text-anchor="middle">I</text></g><g id="edge83" class="edge"><title>EFSVIUDM-&gt;I</title><path fill="none" stroke="#000" d="M254.9189,-581.9621C262.279,-516.3951 290.9354,-292.1844 343,-247 516.782,-96.1829 627.9252,-203.4627 857.6874,-191 893.2201,-189.0726 903.8147,-180.3018 937.7534,-191 961.6709,-198.5393 984.7615,-214.9533 1001.5652,-229.1367"/><polygon fill="#000" stroke="#000" points="999.449 -231.935 1009.285 -235.872 1004.051 -226.66 999.449 -231.935"/><text x="621.719" y="-184.2" fill="#00f" font-family="Times,serif" font-size="14" text-anchor="start">insert</text></g><g id="node11" class="node"><title>U</title><polygon fill="none" stroke="#000" points="1317.859 -391 1173.859 -391 1173.859 -355 1317.859 -355 1317.859 -391"/><text x="1245.859" y="-368.8" fill="#000" font-family="Times,serif" font-size="14" text-anchor="middle">U</text></g><g id="edge90" class="edge"><title>EFSVIUDM-&gt;U</title><path fill="none" stroke="#000" d="M254.739,-581.6807C261.8373,-510.4703 290.7496,-253.0549 343,-193 394.0048,-134.3768 429.1457,-132 506.8514,-132 506.8514,-132 506.8514,-132 1027.7534,-132 1092.4227,-132 1110.4054,-154.9987 1155.8586,-201 1197.4305,-243.0732 1224.3011,-308.2957 1237.0896,-345.1543"/><polygon fill="#000" stroke="#000" points="1233.814 -346.396 1240.324 -354.755 1240.448 -344.161 1233.814 -346.396"/><text x="759.913" y="-136.2" fill="#00f" font-family="Times,serif" font-size="14" text-anchor="start">set</text></g><g id="node12" class="node"><title>D</title><polygon fill="none" stroke="#000" points="1317.859 -615 1173.859 -615 1173.859 -579 1317.859 -579 1317.859 -615"/><text x="1245.859" y="-592.8" fill="#000" font-family="Times,serif" font-size="14" text-anchor="middle">D</text></g><g id="edge96" class="edge"><title>EFSVIUDM-&gt;D</title><path fill="none" stroke="#000" d="M254.9857,-581.8206C260.5779,-539.7626 280.3777,-435.2136 343,-381 407.8738,-324.8373 1032.9787,-173.1113 1099.7534,-227 1130.0956,-251.4868 1148.3723,-540.4923 1173.8586,-570 1174.4885,-570.7293 1175.1402,-571.439 1175.8118,-572.1295"/><polygon fill="#000" stroke="#000" points="1173.806 -575.018 1183.695 -578.82 1178.335 -569.681 1173.806 -575.018"/><text x="750.975" y="-273.2" fill="#00f" font-family="Times,serif" font-size="14" text-anchor="start">delete</text></g><g id="node13" class="node"><title>V</title><polygon fill="none" stroke="#000" points="1317.859 -1042 1173.859 -1042 1173.859 -1006 1317.859 -1006 1317.859 -1042"/><text x="1245.859" y="-1019.8" fill="#000" font-family="Times,serif" font-size="14" text-anchor="middle">V</text></g><g id="edge87" class="edge"><title>EFSVIUDM-&gt;V</title><path fill="none" stroke="#000" d="M294.3853,-581.9785C309.4164,-576.1994 326.7123,-570.4166 343,-567 507.5889,-532.4746 956.6254,-483.7056 1099.7534,-572 1133.1,-592.5712 1140.4889,-603.9592 1155.8586,-640 1182.8902,-703.3872 1159.5025,-726.6016 1173.8586,-794 1189.7562,-868.6355 1219.5452,-953.6616 1235.3639,-996.3931"/><polygon fill="#000" stroke="#000" points="1232.109 -997.682 1238.885 -1005.828 1238.668 -995.235 1232.109 -997.682"/><text x="749.805" y="-529.2" fill="#00f" font-family="Times,serif" font-size="14" text-anchor="start">values</text></g><g id="node4" class="node"><title>ERSUD</title><polygon fill="none" stroke="#000" points="839.687 -1285 695.687 -1285 695.687 -1249 839.687 -1249 839.687 -1285"/><text x="767.687" y="-1262.8" fill="#000" font-family="Times,serif" font-size="14" text-anchor="middle">ERSUD</text></g><g id="edge3" class="edge"><title>EWSIUD-&gt;ERSUD</title><path fill="none" stroke="#000" d="M508.1899,-829.0328C512.7231,-880.0426 531.104,-1028.1306 596.8514,-1128 629.9412,-1178.263 686.9128,-1219.26 725.896,-1243.3872"/><polygon fill="#000" stroke="#000" points="724.54 -1246.659 734.903 -1248.861 728.175 -1240.677 724.54 -1246.659"/><text x="596.851" y="-1212.2" fill="#00f" font-family="Times,serif" font-size="14" text-anchor="start">express-where</text></g><g id="edge40" class="edge"><title>EWSIUD-&gt;SUD</title><path fill="none" stroke="#000" d="M510.8057,-829.2655C522.6313,-882.1975 559.2412,-1033.9529 596.8514,-1066 714.0673,-1165.878 786.967,-1096.7163 937.7534,-1128 940.3873,-1128.5465 943.0622,-1129.1114 945.7615,-1129.6901"/><polygon fill="#000" stroke="#000" points="945.096 -1133.127 955.612 -1131.837 946.587 -1126.288 945.096 -1133.127"/><text x="750.589" y="-1126.2" fill="#00f" font-family="Times,serif" font-size="14" text-anchor="start">where</text></g><g id="edge10" class="edge"><title>EWSIUD-&gt;SIUD</title><path fill="none" stroke="#000" d="M518.8278,-792.8533C534.2054,-771.0804 562.9847,-735.1476 596.8514,-716.2 623.5959,-701.2371 655.8548,-692.4466 685.1038,-687.287"/><polygon fill="#000" stroke="#000" points="686.01 -690.685 695.31 -685.609 684.875 -683.778 686.01 -690.685"/><text x="624.826" y="-721.2" fill="#00f" font-family="Times,serif" font-size="14" text-anchor="start">with</text></g><g id="edge20" class="edge"><title>EWSIUD-&gt;SIUD</title><path fill="none" stroke="#000" d="M579.0928,-799.2073C617.6764,-792.0728 660.6531,-782.5357 677.6874,-773 707.111,-756.5289 732.9671,-727.4076 749.3262,-706.1291"/><polygon fill="#000" stroke="#000" points="752.133 -708.22 755.325 -698.118 746.529 -704.025 752.133 -708.22"/><text x="623.663" y="-800.2" fill="#00f" font-family="Times,serif" font-size="14" text-anchor="start">from</text></g><g id="edge30" class="edge"><title>EWSIUD-&gt;SIUD</title><path fill="none" stroke="#000" d="M529.6447,-792.905C547.1219,-779.8518 572.3309,-762.7397 596.8514,-752.2 630.7768,-737.6178 643.4321,-746.7895 677.6874,-733 696.8479,-725.287 716.7755,-713.9449 732.9943,-703.7303"/><polygon fill="#000" stroke="#000" points="735.075 -706.553 741.595 -698.202 731.29 -700.665 735.075 -706.553"/><text x="620.556" y="-757.2" fill="#00f" font-family="Times,serif" font-size="14" text-anchor="start">return</text></g><g id="edge49" class="edge"><title>EWSIUD-&gt;S</title><path fill="none" stroke="#000" d="M508.3265,-829.2803C512.8484,-871.9637 530.5587,-978.1823 596.8514,-1026 687.7472,-1091.5642 1006.7062,-1001.5266 1099.7534,-1064 1114.6049,-1073.9716 1106.6735,-1085.9559 1117.7534,-1100 1131.4513,-1117.3625 1142.364,-1114.4791 1155.8586,-1132 1195.6923,-1183.7184 1223.6589,-1255.9111 1236.9925,-1295.0644"/><polygon fill="#000" stroke="#000" points="1233.732 -1296.351 1240.215 -1304.731 1240.373 -1294.138 1233.732 -1296.351"/><text x="882.952" y="-1049.2" fill="#00f" font-family="Times,serif" font-size="14" text-anchor="start">order</text></g><g id="edge56" class="edge"><title>EWSIUD-&gt;S</title><path fill="none" stroke="#000" d="M512.0656,-829.12C522.4014,-861.4866 548.7528,-928.8503 596.8514,-961 690.7906,-1023.7901 1009.3405,-968.2306 1099.7534,-1036 1115.029,-1047.4499 1105.6791,-1060.213 1117.7534,-1075 1131.0457,-1091.2787 1142.9284,-1086.4323 1155.8586,-1103 1202.6338,-1162.9338 1228.6961,-1250.5421 1239.6329,-1294.9535"/><polygon fill="#000" stroke="#000" points="1236.249 -1295.851 1241.975 -1304.765 1243.057 -1294.226 1236.249 -1295.851"/><text x="884.494" y="-1003.2" fill="#00f" font-family="Times,serif" font-size="14" text-anchor="start">limit</text></g><g id="edge63" class="edge"><title>EWSIUD-&gt;S</title><path fill="none" stroke="#000" d="M560.5993,-829.0155C572.5276,-832.986 585.1129,-837.1535 596.8514,-841 755.2695,-892.9101 791.8014,-919.8225 955.7534,-950 999.7745,-958.1026 1123.5053,-942.0682 1155.8586,-973 1174.0793,-990.4202 1168.1962,-1060.4359 1173.8586,-1085 1191.6709,-1162.2709 1220.9916,-1251.1903 1236.1341,-1295.2571"/><polygon fill="#000" stroke="#000" points="1232.827 -1296.404 1239.402 -1304.712 1239.443 -1294.117 1232.827 -1296.404"/><text x="881.785" y="-950.2" fill="#00f" font-family="Times,serif" font-size="14" text-anchor="start">offset</text></g><g id="edge70" class="edge"><title>EWSIUD-&gt;S</title><path fill="none" stroke="#000" d="M579.1794,-812.7551C700.9284,-815.7721 934.0129,-821.8443 937.7534,-824.2 952.4879,-833.4797 942.1668,-848.1087 955.7534,-859 1007.3989,-900.4002 1042.3523,-864.0402 1099.7534,-897 1130.3062,-914.5434 1140.1883,-921.4455 1155.8586,-953 1182.194,-1006.0304 1161.2468,-1027.1492 1173.8586,-1085 1190.7492,-1162.4776 1220.4709,-1251.3071 1235.9135,-1295.3065"/><polygon fill="#000" stroke="#000" points="1232.617 -1296.484 1239.249 -1304.746 1239.217 -1294.151 1232.617 -1296.484"/><text x="881.39" y="-829.2" fill="#00f" font-family="Times,serif" font-size="14" text-anchor="start">group</text></g><g id="edge77" class="edge"><title>EWSIUD-&gt;S</title><path fill="none" stroke="#000" d="M507.6456,-829.1255C510.9057,-889.2017 526.6512,-1086.0814 596.8514,-1229 676.086,-1390.3116 705.8437,-1441.8593 857.6874,-1538 969.6548,-1608.8928 1062.6699,-1634.225 1155.8586,-1540 1208.9608,-1486.3073 1232.3292,-1396.767 1241.1962,-1351.3213"/><polygon fill="#000" stroke="#000" points="1244.676 -1351.753 1243.057 -1341.283 1237.793 -1350.477 1244.676 -1351.753"/><text x="878.668" y="-1584.2" fill="#00f" font-family="Times,serif" font-size="14" text-anchor="start">having</text></g><g id="edge84" class="edge"><title>EWSIUD-&gt;I</title><path fill="none" stroke="#000" d="M519.2204,-792.6159C535.8582,-766.8718 564.9591,-718.054 578.8514,-672 600.2832,-600.9519 556.505,-568.2842 596.8514,-506 599.9059,-501.2846 880.98,-338.7251 987.4728,-277.2409"/><polygon fill="#000" stroke="#000" points="989.417 -280.16 996.328 -272.129 985.918 -274.097 989.417 -280.16"/><text x="752.137" y="-450.2" fill="#00f" font-family="Times,serif" font-size="14" text-anchor="start">insert</text></g><g id="edge91" class="edge"><title>EWSIUD-&gt;U</title><path fill="none" stroke="#000" d="M519.3766,-792.662C536.1957,-766.9715 565.5059,-718.2154 578.8514,-672 605.2085,-580.7252 573.0461,-550.9733 596.8514,-459 623.7106,-355.2278 611.0034,-304.7168 695.6874,-239 767.0641,-183.61 1018.1317,-155.2627 1099.7534,-194 1166.3231,-225.5937 1212.5845,-304.0094 1233.4071,-345.7867"/><polygon fill="#000" stroke="#000" points="1230.289 -347.378 1237.808 -354.843 1236.585 -344.319 1230.289 -347.378"/><text x="889.946" y="-190.2" fill="#00f" font-family="Times,serif" font-size="14" text-anchor="start">set</text></g><g id="edge97" class="edge"><title>EWSIUD-&gt;D</title><path fill="none" stroke="#000" d="M515.7865,-792.8657C545.2509,-733.8131 640.5945,-548.7752 695.6874,-513 770.9953,-464.098 1017.0759,-477.9698 1099.7534,-513 1138.0125,-529.2103 1137.5384,-549.8165 1173.8586,-570 1176.8671,-571.6718 1179.9998,-573.2808 1183.2013,-574.8225"/><polygon fill="#000" stroke="#000" points="1181.808 -578.034 1192.36 -578.986 1184.705 -571.661 1181.808 -578.034"/><text x="881.008" y="-488.2" fill="#00f" font-family="Times,serif" font-size="14" text-anchor="start">delete</text></g><g id="edge4" class="edge"><title>ERSUD-&gt;SUD</title><path fill="none" stroke="#000" d="M812.286,-1285.0137C848.2536,-1296.5339 899.0465,-1305.8 937.7534,-1285 980.2451,-1262.1661 1006.0414,-1209.4873 1018.5441,-1176.8026"/><polygon fill="#000" stroke="#000" points="1021.851 -1177.95 1022.001 -1167.356 1015.278 -1175.544 1021.851 -1177.95"/><text x="857.687" y="-1301.2" fill="#00f" font-family="Times,serif" font-size="14" text-anchor="start">express-return</text></g><g id="edge12" class="edge"><title>ERSUD-&gt;SUD</title><path fill="none" stroke="#000" d="M840.0001,-1262.5119C878.2765,-1259.1825 920.793,-1253.6825 937.7534,-1245 968.8114,-1229.1005 994.8443,-1198.0038 1010.7939,-1175.5018"/><polygon fill="#000" stroke="#000" points="1013.822 -1177.275 1016.601 -1167.051 1008.053 -1173.311 1013.822 -1177.275"/><text x="885.277" y="-1264.2" fill="#00f" font-family="Times,serif" font-size="14" text-anchor="start">with</text></g><g id="edge22" class="edge"><title>ERSUD-&gt;SUD</title><path fill="none" stroke="#000" d="M801.5926,-1248.8127C818.1613,-1240.4633 838.6006,-1230.9438 857.6874,-1224.2 892.1908,-1212.0092 903.9913,-1219.1146 937.7534,-1205 957.6663,-1196.6752 978.2233,-1184.2246 994.6548,-1173.1758"/><polygon fill="#000" stroke="#000" points="997.068 -1175.764 1003.329 -1167.217 993.105 -1169.995 997.068 -1175.764"/><text x="884.115" y="-1228.2" fill="#00f" font-family="Times,serif" font-size="14" text-anchor="start">from</text></g><g id="edge32" class="edge"><title>ERSUD-&gt;SUD</title><path fill="none" stroke="#000" d="M782.1995,-1248.7622C798.483,-1229.6029 826.7053,-1200.0912 857.6874,-1184.2 866.0036,-1179.9345 906.1597,-1171.5434 945.3618,-1164.0238"/><polygon fill="#000" stroke="#000" points="946.119 -1167.443 955.288 -1162.134 944.81 -1160.566 946.119 -1167.443"/><text x="881.007" y="-1188.2" fill="#00f" font-family="Times,serif" font-size="14" text-anchor="start">return</text></g><g id="edge42" class="edge"><title>ERSUD-&gt;SUD</title><path fill="none" stroke="#000" d="M774.7904,-1248.6865C786.8971,-1220.3786 814.4943,-1166.9894 857.6874,-1145.2 884.3403,-1131.7545 916.46,-1129.5195 945.5738,-1131.7381"/><polygon fill="#000" stroke="#000" points="945.448 -1135.242 955.732 -1132.698 946.106 -1128.273 945.448 -1135.242"/><text x="880.622" y="-1149.2" fill="#00f" font-family="Times,serif" font-size="14" text-anchor="start">where</text></g><g id="edge51" class="edge"><title>ERSUD-&gt;S</title><path fill="none" stroke="#000" d="M784.87,-1285.059C801.8608,-1304.0791 827.091,-1335.6994 839.6874,-1368 851.4043,-1398.0452 834.2866,-1489.8098 857.6874,-1512 894.5346,-1546.941 1094.6734,-1558.2321 1155.8586,-1519 1214.2208,-1481.578 1235.2405,-1395.7577 1242.4047,-1351.1249"/><polygon fill="#000" stroke="#000" points="1245.867 -1351.636 1243.873 -1341.231 1238.943 -1350.609 1245.867 -1351.636"/><text x="1012.986" y="-1547.2" fill="#00f" font-family="Times,serif" font-size="14" text-anchor="start">order</text></g><g id="edge58" class="edge"><title>ERSUD-&gt;S</title><path fill="none" stroke="#000" d="M784.4001,-1285.2519C801.0167,-1304.4256 825.9537,-1336.1663 839.6874,-1368 856.019,-1405.8554 826.7842,-1431.71 857.6874,-1459 907.354,-1502.8595 1099.5495,-1493.9244 1155.8586,-1459 1196.4584,-1433.8189 1222.638,-1382.747 1235.7682,-1350.8554"/><polygon fill="#000" stroke="#000" points="1239.151 -1351.819 1239.574 -1341.232 1232.642 -1349.244 1239.151 -1351.819"/><text x="1014.527" y="-1492.2" fill="#00f" font-family="Times,serif" font-size="14" text-anchor="start">limit</text></g><g id="edge65" class="edge"><title>ERSUD-&gt;S</title><path fill="none" stroke="#000" d="M782.2543,-1285.3188C797.5868,-1305.0604 821.9174,-1337.73 839.6874,-1368 849.1483,-1384.116 842.262,-1395.4505 857.6874,-1406 967.0732,-1480.8093 1035.6541,-1461.7904 1155.8586,-1406 1183.8624,-1393.0026 1209.0616,-1368.0346 1225.6236,-1348.8639"/><polygon fill="#000" stroke="#000" points="1228.429 -1350.965 1232.176 -1341.055 1223.067 -1346.466 1228.429 -1350.965"/><text x="1011.818" y="-1459.2" fill="#00f" font-family="Times,serif" font-size="14" text-anchor="start">offset</text></g><g id="edge72" class="edge"><title>ERSUD-&gt;S</title><path fill="none" stroke="#000" d="M780.5123,-1285.2874C796.1049,-1305.8538 824.4907,-1338.2958 857.6874,-1353 966.292,-1401.1053 1108.7082,-1369.029 1187.3378,-1344.1855"/><polygon fill="#000" stroke="#000" points="1188.628 -1347.447 1197.069 -1341.044 1186.477 -1340.785 1188.628 -1347.447"/><text x="1011.423" y="-1381.2" fill="#00f" font-family="Times,serif" font-size="14" text-anchor="start">group</text></g><g id="edge79" class="edge"><title>ERSUD-&gt;S</title><path fill="none" stroke="#000" d="M791.8218,-1285.059C809.1584,-1296.8933 833.6238,-1311.3581 857.6874,-1318 960.175,-1346.2879 1083.7525,-1341.6112 1163.5102,-1333.8552"/><polygon fill="#000" stroke="#000" points="1163.901 -1337.334 1173.498 -1332.845 1163.197 -1330.369 1163.901 -1337.334"/><text x="1008.701" y="-1343.2" fill="#00f" font-family="Times,serif" font-size="14" text-anchor="start">having</text></g><g id="edge93" class="edge"><title>ERSUD-&gt;U</title><path fill="none" stroke="#000" d="M781.4696,-1248.8253C798.2733,-1225.6235 826.1069,-1183.6064 839.6874,-1143 850.3357,-1111.161 836.6582,-1019.1703 857.6874,-993 881.3008,-963.6137 909.4283,-989.8765 937.7534,-965 951.1345,-953.248 943.0834,-941.7154 955.7534,-929.2 1006.4076,-879.1641 1054.7565,-914.1789 1099.7534,-859 1183.5538,-756.2371 1134.5833,-696.6498 1173.8586,-570 1192.8683,-508.7001 1219.8305,-438.4293 1234.7844,-400.5962"/><polygon fill="#000" stroke="#000" points="1238.054 -401.846 1238.491 -391.26 1231.548 -399.263 1238.054 -401.846"/><text x="1019.979" y="-933.2" fill="#00f" font-family="Times,serif" font-size="14" text-anchor="start">set</text></g><g id="edge99" class="edge"><title>ERSUD-&gt;D</title><path fill="none" stroke="#000" d="M776.4486,-1248.5614C790.6095,-1220.0977 820.7117,-1164.7994 857.6874,-1127 887.7016,-1096.3172 902.8548,-1097.9874 937.7534,-1073 1011.2565,-1020.3717 1044.5475,-1021.5874 1099.7534,-950 1180.7345,-844.9891 1224.341,-688.6922 1239.5572,-625.2681"/><polygon fill="#000" stroke="#000" points="1243.038 -625.756 1241.915 -615.221 1236.223 -624.157 1243.038 -625.756"/><text x="1011.041" y="-1064.2" fill="#00f" font-family="Times,serif" font-size="14" text-anchor="start">delete</text></g><g id="edge13" class="edge"><title>SUD-&gt;SUD</title><path fill="none" stroke="#000" d="M1022.8689,-1167.1527C1022.1174,-1176.5391 1023.7456,-1185 1027.7534,-1185 1030.1957,-1185 1031.7543,-1181.8581 1032.4292,-1177.2796"/><polygon fill="#000" stroke="#000" points="1035.931 -1177.223 1032.638 -1167.153 1028.932 -1177.078 1035.931 -1177.223"/><text x="1015.309" y="-1189.2" fill="#00f" font-family="Times,serif" font-size="14" text-anchor="start">with</text></g><g id="edge23" class="edge"><title>SUD-&gt;SUD</title><path fill="none" stroke="#000" d="M1019.5664,-1167.2576C1015.3213,-1184.4023 1018.0503,-1203 1027.7534,-1203 1035.5614,-1203 1038.8535,-1190.9576 1037.6297,-1177.3202"/><polygon fill="#000" stroke="#000" points="1041.048 -1176.54 1035.94 -1167.258 1034.144 -1177.699 1041.048 -1176.54"/><text x="1014.148" y="-1207.2" fill="#00f" font-family="Times,serif" font-size="14" text-anchor="start">from</text></g><g id="edge33" class="edge"><title>SUD-&gt;SUD</title><path fill="none" stroke="#000" d="M1017.5057,-1167.0781C1008.4381,-1191.4094 1011.854,-1221 1027.7534,-1221 1041.6033,-1221 1045.9806,-1198.5465 1040.8854,-1176.675"/><polygon fill="#000" stroke="#000" points="1044.231 -1175.648 1038.001 -1167.078 1037.527 -1177.662 1044.231 -1175.648"/><text x="1011.04" y="-1225.2" fill="#00f" font-family="Times,serif" font-size="14" text-anchor="start">return</text></g><g id="edge43" class="edge"><title>SUD-&gt;SUD</title><path fill="none" stroke="#000" d="M1016.0179,-1167.1124C1001.5877,-1198.2398 1005.4995,-1239 1027.7534,-1239 1047.8341,-1239 1052.9802,-1205.8121 1043.1917,-1176.4604"/><polygon fill="#000" stroke="#000" points="1046.426 -1175.121 1039.489 -1167.112 1039.918 -1177.699 1046.426 -1175.121"/><text x="1010.655" y="-1243.2" fill="#00f" font-family="Times,serif" font-size="14" text-anchor="start">where</text></g><g id="edge52" class="edge"><title>SUD-&gt;S</title><path fill="none" stroke="#000" d="M1056.8924,-1167.2303C1074.4895,-1178.2148 1097.3798,-1192.4598 1117.7534,-1205 1134.6388,-1215.3932 1140.4303,-1215.7459 1155.8586,-1228.2 1181.6223,-1248.9971 1207.2521,-1276.8804 1224.5324,-1297.0179"/><polygon fill="#000" stroke="#000" points="1222.043 -1299.494 1231.178 -1304.861 1227.384 -1294.969 1222.043 -1299.494"/><text x="1122.038" y="-1232.2" fill="#00f" font-family="Times,serif" font-size="14" text-anchor="start">order</text></g><g id="edge59" class="edge"><title>SUD-&gt;S</title><path fill="none" stroke="#000" d="M1100.0616,-1164.1727C1123.6637,-1170.1157 1146.2735,-1177.1842 1155.8586,-1184.2 1194.7545,-1212.6697 1221.3335,-1263.4689 1235.0274,-1295.0818"/><polygon fill="#000" stroke="#000" points="1231.93 -1296.746 1239.02 -1304.619 1238.387 -1294.043 1231.93 -1296.746"/><text x="1123.58" y="-1188.2" fill="#00f" font-family="Times,serif" font-size="14" text-anchor="start">limit</text></g><g id="edge66" class="edge"><title>SUD-&gt;S</title><path fill="none" stroke="#000" d="M1099.9307,-1135.2419C1119.2522,-1134.99 1139.339,-1138.1248 1155.8586,-1148.2 1208.5358,-1180.3273 1231.6944,-1254.2379 1240.7568,-1294.9059"/><polygon fill="#000" stroke="#000" points="1237.337 -1295.651 1242.813 -1304.721 1244.188 -1294.216 1237.337 -1295.651"/><text x="1120.87" y="-1152.2" fill="#00f" font-family="Times,serif" font-size="14" text-anchor="start">offset</text></g><g id="edge73" class="edge"><title>SUD-&gt;S</title><path fill="none" stroke="#000" d="M1034.9672,-1167.3887C1047.4013,-1196.689 1075.6555,-1253.8339 1117.7534,-1285 1131.3911,-1295.0963 1147.6937,-1302.5254 1164.0251,-1307.9871"/><polygon fill="#000" stroke="#000" points="1163.035 -1311.345 1173.624 -1310.981 1165.12 -1304.662 1163.035 -1311.345"/><text x="1120.476" y="-1307.2" fill="#00f" font-family="Times,serif" font-size="14" text-anchor="start">group</text></g><g id="edge80" class="edge"><title>SUD-&gt;S</title><path fill="none" stroke="#000" d="M1041.4511,-1167.0833C1057.8636,-1187.852 1087.0189,-1222.0119 1117.7534,-1245 1132.9395,-1256.3585 1139.427,-1254.7323 1155.8586,-1264.2 1174.7252,-1275.0707 1195.0873,-1288.245 1211.6636,-1299.3657"/><polygon fill="#000" stroke="#000" points="1209.713 -1302.272 1219.959 -1304.971 1213.633 -1296.472 1209.713 -1302.272"/><text x="1117.753" y="-1268.2" fill="#00f" font-family="Times,serif" font-size="14" text-anchor="start">having</text></g><g id="edge94" class="edge"><title>SUD-&gt;U</title><path fill="none" stroke="#000" d="M1084.6136,-1130.8133C1090.4014,-1127.0258 1095.6491,-1122.4711 1099.7534,-1117 1108.9547,-1104.7344 1170.1762,-584.8845 1173.8586,-570 1189.2719,-507.6985 1217.5898,-437.8052 1233.7374,-400.3046"/><polygon fill="#000" stroke="#000" points="1236.981 -401.622 1237.757 -391.056 1230.561 -398.832 1236.981 -401.622"/><text x="1129.031" y="-1000.2" fill="#00f" font-family="Times,serif" font-size="14" text-anchor="start">set</text></g><g id="edge100" class="edge"><title>SUD-&gt;D</title><path fill="none" stroke="#000" d="M1078.2774,-1130.8802C1085.8978,-1126.9523 1093.3419,-1122.3402 1099.7534,-1117 1133.6841,-1088.7389 1138.6074,-1075.6495 1155.8586,-1035 1217.8789,-888.8602 1238.2436,-696.6991 1243.9271,-625.3011"/><polygon fill="#000" stroke="#000" points="1247.42 -625.52 1244.69 -615.283 1240.441 -624.988 1247.42 -625.52"/><text x="1120.093" y="-1104.2" fill="#00f" font-family="Times,serif" font-size="14" text-anchor="start">delete</text></g><g id="edge6" class="edge"><title>M-&gt;M</title><path fill="none" stroke="#000" d="M495.4542,-36.1527C493.7008,-45.5391 497.4998,-54 506.8514,-54 512.55,-54 516.1868,-50.8581 517.7617,-46.2796"/><polygon fill="#000" stroke="#000" points="521.264 -46.309 518.249 -36.153 514.272 -45.973 521.264 -46.309"/><text x="504.906" y="-58.2" fill="#00f" font-family="Times,serif" font-size="14" text-anchor="start">l</text></g><g id="edge8" class="edge"><title>M-&gt;M</title><path fill="none" stroke="#000" d="M487.7484,-36.2576C477.8431,-53.4023 484.2108,-72 506.8514,-72 525.4238,-72 533.0459,-59.4854 529.7177,-45.5241"/><polygon fill="#000" stroke="#000" points="532.96 -44.206 525.954 -36.258 526.475 -46.84 532.96 -44.206"/><text x="496.361" y="-76.2" fill="#00f" font-family="Times,serif" font-size="14" text-anchor="start">raw</text></g><g id="edge31" class="edge"><title>SIUD-&gt;SUD</title><path fill="none" stroke="#000" d="M772.5137,-698.1587C782.5047,-732.1886 808.7174,-805.6629 857.6874,-845 886.5711,-868.202 914.4433,-839.4034 937.7534,-868.2 972.6307,-911.2864 923.8886,-1071.6404 955.7534,-1117 957.6799,-1119.7423 959.897,-1122.2528 962.3316,-1124.5508"/><polygon fill="#000" stroke="#000" points="960.211 -1127.336 970.214 -1130.826 964.571 -1121.86 960.211 -1127.336"/><text x="881.007" y="-872.2" fill="#00f" font-family="Times,serif" font-size="14" text-anchor="start">return</text></g><g id="edge41" class="edge"><title>SIUD-&gt;SUD</title><path fill="none" stroke="#000" d="M770.3817,-698.0808C777.2873,-737.9441 799.3676,-833.8937 857.6874,-885 885.5512,-909.4174 914.2456,-879.5646 937.7534,-908.2 967.3039,-944.1962 928.7206,-1079.0766 955.7534,-1117 957.6987,-1119.729 959.9311,-1122.2287 962.3779,-1124.5181"/><polygon fill="#000" stroke="#000" points="960.274 -1127.316 970.288 -1130.774 964.616 -1121.826 960.274 -1127.316"/><text x="880.622" y="-912.2" fill="#00f" font-family="Times,serif" font-size="14" text-anchor="start">where</text></g><g id="edge11" class="edge"><title>SIUD-&gt;SIUD</title><path fill="none" stroke="#000" d="M755.9284,-698.1527C754.1193,-707.5391 758.039,-716 767.6874,-716 773.5669,-716 777.3191,-712.8581 778.944,-708.2796"/><polygon fill="#000" stroke="#000" points="782.447 -708.314 779.446 -698.153 775.455 -707.967 782.447 -708.314"/><text x="755.244" y="-720.2" fill="#00f" font-family="Times,serif" font-size="14" text-anchor="start">with</text></g><g id="edge21" class="edge"><title>SIUD-&gt;SIUD</title><path fill="none" stroke="#000" d="M747.9779,-698.2576C737.7582,-715.4023 744.328,-734 767.6874,-734 786.8494,-734 794.7135,-721.4854 791.2797,-707.5241"/><polygon fill="#000" stroke="#000" points="794.49 -706.128 787.397 -698.258 788.034 -708.833 794.49 -706.128"/><text x="754.082" y="-738.2" fill="#00f" font-family="Times,serif" font-size="14" text-anchor="start">from</text></g><g id="edge50" class="edge"><title>SIUD-&gt;S</title><path fill="none" stroke="#000" d="M824.5927,-661.9803C891.1287,-643.4851 1004.3122,-620.0467 1099.7534,-640.2 1126.4283,-645.8326 1140.4937,-642.479 1155.8586,-665 1182.1831,-703.585 1166.0345,-1038.9505 1173.8586,-1085 1187.1414,-1163.177 1218.4329,-1251.7022 1235.05,-1295.4739"/><polygon fill="#000" stroke="#000" points="1231.802 -1296.778 1238.651 -1304.862 1238.338 -1294.272 1231.802 -1296.778"/><text x="1012.986" y="-645.2" fill="#00f" font-family="Times,serif" font-size="14" text-anchor="start">order</text></g><g id="edge57" class="edge"><title>SIUD-&gt;S</title><path fill="none" stroke="#000" d="M779.4312,-698.2984C794.7779,-720.7666 823.7337,-758.5267 857.6874,-780 916.1297,-816.9606 1112.2977,-815.2968 1155.8586,-869 1186.2014,-906.4074 1164.8351,-1037.6864 1173.8586,-1085 1188.7143,-1162.8934 1219.3214,-1251.542 1235.4265,-1295.406"/><polygon fill="#000" stroke="#000" points="1232.156 -1296.653 1238.912 -1304.815 1238.72 -1294.222 1232.156 -1296.653"/><text x="1014.527" y="-842.2" fill="#00f" font-family="Times,serif" font-size="14" text-anchor="start">limit</text></g><g id="edge64" class="edge"><title>SIUD-&gt;S</title><path fill="none" stroke="#000" d="M786.7752,-698.0862C803.9622,-713.3109 830.6145,-734.4042 857.6874,-746 985.5377,-800.7604 1095.4299,-715.7292 1155.8586,-841 1179.4809,-889.9698 1163.9269,-1031.5453 1173.8586,-1085 1188.3439,-1162.9631 1219.1122,-1251.5813 1235.3378,-1295.4227"/><polygon fill="#000" stroke="#000" points="1232.072 -1296.683 1238.85 -1304.826 1238.63 -1294.234 1232.072 -1296.683"/><text x="1011.818" y="-784.2" fill="#00f" font-family="Times,serif" font-size="14" text-anchor="start">offset</text></g><g id="edge71" class="edge"><title>SIUD-&gt;S</title><path fill="none" stroke="#000" d="M839.8838,-690.4863C923.1101,-703.2546 1054.2825,-725.663 1099.7534,-746.2 1128.3362,-759.1095 1141.1004,-761.3264 1155.8586,-789 1186.8683,-847.1473 1162.2389,-1020.1332 1173.8586,-1085 1187.8407,-1163.055 1218.8279,-1251.6332 1235.2174,-1295.4447"/><polygon fill="#000" stroke="#000" points="1231.959 -1296.724 1238.767 -1304.842 1238.507 -1294.25 1231.959 -1296.724"/><text x="1011.423" y="-751.2" fill="#00f" font-family="Times,serif" font-size="14" text-anchor="start">group</text></g><g id="edge78" class="edge"><title>SIUD-&gt;S</title><path fill="none" stroke="#000" d="M839.8336,-675.7889C923.3528,-672.0269 1055.1522,-669.8463 1099.7534,-690.2 1133.2042,-705.4653 1141.5552,-717.1267 1155.8586,-751 1184.7733,-819.4754 1161.0047,-1011.7899 1173.8586,-1085 1187.5715,-1163.1027 1218.6758,-1251.6602 1235.153,-1295.4561"/><polygon fill="#000" stroke="#000" points="1231.898 -1296.745 1238.722 -1304.85 1238.442 -1294.258 1231.898 -1296.745"/><text x="1008.701" y="-695.2" fill="#00f" font-family="Times,serif" font-size="14" text-anchor="start">having</text></g><g id="edge85" class="edge"><title>SIUD-&gt;I</title><path fill="none" stroke="#000" d="M777.5452,-661.5745C792.2507,-635.3972 822.0551,-587.0863 857.6874,-555.2 888.1388,-527.95 913.7014,-543.0356 937.7534,-510 961.2504,-477.7266 943.8291,-460.0984 955.7534,-422 971.7304,-370.953 997.8832,-314.2926 1013.8844,-281.5427"/><polygon fill="#000" stroke="#000" points="1017.218 -282.696 1018.502 -272.179 1010.94 -279.6 1017.218 -282.696"/><text x="882.17" y="-560.2" fill="#00f" font-family="Times,serif" font-size="14" text-anchor="start">insert</text></g><g id="edge92" class="edge"><title>SIUD-&gt;U</title><path fill="none" stroke="#000" d="M783.9996,-661.8398C800.9056,-643.9652 828.8534,-616.9537 857.6874,-600 890.1844,-580.8926 905.4908,-591.5006 937.7534,-572 947.1186,-566.3393 947.0807,-561.8735 955.7534,-555.2 1039.1967,-490.9912 1145.963,-428.4576 1203.893,-395.9871"/><polygon fill="#000" stroke="#000" points="1205.734 -398.968 1212.76 -391.038 1202.322 -392.856 1205.734 -398.968"/><text x="1019.979" y="-560.2" fill="#00f" font-family="Times,serif" font-size="14" text-anchor="start">set</text></g><g id="edge98" class="edge"><title>SIUD-&gt;D</title><path fill="none" stroke="#000" d="M794.0272,-661.8478C811.541,-650.3012 835.3475,-635.5851 857.6874,-625 891.7549,-608.8582 903.2932,-612.2855 937.7534,-597 946.0799,-593.3066 946.9261,-589.4472 955.7534,-587.2 1024.3095,-569.747 1104.9122,-574.3817 1163.7354,-582.1283"/><polygon fill="#000" stroke="#000" points="1163.336 -585.606 1173.719 -583.5 1164.289 -578.671 1163.336 -585.606"/><text x="1011.041" y="-592.2" fill="#00f" font-family="Times,serif" font-size="14" text-anchor="start">delete</text></g><g id="edge53" class="edge"><title>SV-&gt;SV</title><path fill="none" stroke="#000" d="M1021.2407,-1776.1527C1020.2388,-1785.5391 1022.4097,-1794 1027.7534,-1794 1031.0097,-1794 1033.0879,-1790.8581 1033.9878,-1786.2796"/><polygon fill="#000" stroke="#000" points="1037.49 -1786.245 1034.266 -1776.153 1030.493 -1786.053 1037.49 -1786.245"/><text x="1012.986" y="-1798.2" fill="#00f" font-family="Times,serif" font-size="14" text-anchor="start">order</text></g><g id="edge60" class="edge"><title>SV-&gt;SV</title><path fill="none" stroke="#000" d="M1016.8374,-1776.2576C1011.1772,-1793.4023 1014.8159,-1812 1027.7534,-1812 1038.164,-1812 1042.5535,-1799.9576 1040.9217,-1786.3202"/><polygon fill="#000" stroke="#000" points="1044.269 -1785.252 1038.669 -1776.258 1037.438 -1786.781 1044.269 -1785.252"/><text x="1014.527" y="-1816.2" fill="#00f" font-family="Times,serif" font-size="14" text-anchor="start">limit</text></g><g id="edge67" class="edge"><title>SV-&gt;SV</title><path fill="none" stroke="#000" d="M1014.0898,-1776.0781C1001.9997,-1800.4094 1006.5542,-1830 1027.7534,-1830 1046.3027,-1830 1052.1084,-1807.3447 1045.1706,-1785.3808"/><polygon fill="#000" stroke="#000" points="1048.405 -1784.042 1041.417 -1776.078 1041.913 -1786.661 1048.405 -1784.042"/><text x="1011.818" y="-1834.2" fill="#00f" font-family="Times,serif" font-size="14" text-anchor="start">offset</text></g><g id="edge14" class="edge"><title>SV-&gt;S</title><path fill="none" stroke="#000" d="M1044.2437,-1776.2249C1070.2193,-1802.7554 1121.2631,-1845.8621 1155.8586,-1817 1228.1289,-1756.7068 1242.5133,-1446.6727 1245.2457,-1351.0905"/><polygon fill="#000" stroke="#000" points="1248.746 -1351.111 1245.512 -1341.022 1241.749 -1350.925 1248.746 -1351.111"/><text x="1124.362" y="-1830.2" fill="#00f" font-family="Times,serif" font-size="14" text-anchor="start">with</text></g><g id="edge24" class="edge"><title>SV-&gt;S</title><path fill="none" stroke="#000" d="M1062.0495,-1776.0838C1090.2935,-1788.2019 1129.7953,-1798.4038 1155.8586,-1777 1222.3179,-1722.4221 1240.5602,-1441.7163 1244.7542,-1351.1824"/><polygon fill="#000" stroke="#000" points="1248.254 -1351.257 1245.198 -1341.112 1241.261 -1350.948 1248.254 -1351.257"/><text x="1123.2" y="-1793.2" fill="#00f" font-family="Times,serif" font-size="14" text-anchor="start">from</text></g><g id="edge34" class="edge"><title>SV-&gt;S</title><path fill="none" stroke="#000" d="M1099.9295,-1753.2049C1124.1866,-1750.1449 1147.2791,-1745.148 1155.8586,-1737 1212.1904,-1683.5013 1236.8367,-1436.405 1243.733,-1351.6354"/><polygon fill="#000" stroke="#000" points="1247.239 -1351.699 1244.539 -1341.454 1240.261 -1351.147 1247.239 -1351.699"/><text x="1120.093" y="-1754.2" fill="#00f" font-family="Times,serif" font-size="14" text-anchor="start">return</text></g><g id="edge44" class="edge"><title>SV-&gt;S</title><path fill="none" stroke="#000" d="M1066.5944,-1739.9898C1103.7188,-1722.7029 1154.2927,-1698.9314 1155.8586,-1697 1199.7444,-1642.8714 1231.8868,-1428.465 1242.2692,-1351.0583"/><polygon fill="#000" stroke="#000" points="1245.748 -1351.448 1243.589 -1341.076 1238.808 -1350.531 1245.748 -1351.448"/><text x="1119.708" y="-1718.2" fill="#00f" font-family="Times,serif" font-size="14" text-anchor="start">where</text></g><g id="edge74" class="edge"><title>SV-&gt;S</title><path fill="none" stroke="#000" d="M1044.8094,-1739.8588C1062.0696,-1722.1668 1090.0874,-1695.2177 1117.7534,-1676.2 1133.3813,-1665.4574 1143.8806,-1671.7025 1155.8586,-1657 1194.8241,-1609.1714 1229.2139,-1422.987 1241.2753,-1351.328"/><polygon fill="#000" stroke="#000" points="1244.766 -1351.67 1242.954 -1341.232 1237.861 -1350.522 1244.766 -1351.67"/><text x="1120.476" y="-1680.2" fill="#00f" font-family="Times,serif" font-size="14" text-anchor="start">group</text></g><g id="edge81" class="edge"><title>SV-&gt;S</title><path fill="none" stroke="#000" d="M1038.8777,-1776.0125C1061.7415,-1810.8651 1115.2736,-1881.2086 1155.8586,-1847 1194.4145,-1814.5017 1232.7233,-1455.6962 1243.115,-1351.3214"/><polygon fill="#000" stroke="#000" points="1246.613 -1351.517 1244.112 -1341.222 1239.646 -1350.83 1246.613 -1351.517"/><text x="1117.753" y="-1860.2" fill="#00f" font-family="Times,serif" font-size="14" text-anchor="start">having</text></g><g id="edge88" class="edge"><title>SV-&gt;V</title><path fill="none" stroke="#000" d="M1035.579,-1739.7594C1049.5846,-1706.7114 1079.3739,-1634.5546 1099.7534,-1572 1103.9592,-1559.0903 1209.4395,-1161.3895 1238.5041,-1051.7487"/><polygon fill="#000" stroke="#000" points="1241.893 -1052.623 1241.072 -1042.06 1235.127 -1050.83 1241.893 -1052.623"/><text x="1118.924" y="-1502.2" fill="#00f" font-family="Times,serif" font-size="14" text-anchor="start">values</text></g><g id="edge15" class="edge"><title>S-&gt;S</title><path fill="none" stroke="#000" d="M1243.6877,-1341.1527C1243.3537,-1350.5391 1244.0774,-1359 1245.8586,-1359 1246.944,-1359 1247.6368,-1355.8581 1247.9367,-1351.2796"/><polygon fill="#000" stroke="#000" points="1251.438 -1351.184 1248.03 -1341.153 1244.438 -1351.12 1251.438 -1351.184"/><text x="1233.415" y="-1363.2" fill="#00f" font-family="Times,serif" font-size="14" text-anchor="start">with</text></g><g id="edge25" class="edge"><title>S-&gt;S</title><path fill="none" stroke="#000" d="M1242.2199,-1341.2576C1240.3332,-1358.4023 1241.5461,-1377 1245.8586,-1377 1249.3288,-1377 1250.792,-1364.9576 1250.248,-1351.3202"/><polygon fill="#000" stroke="#000" points="1253.732 -1350.969 1249.497 -1341.258 1246.751 -1351.49 1253.732 -1350.969"/><text x="1232.253" y="-1381.2" fill="#00f" font-family="Times,serif" font-size="14" text-anchor="start">from</text></g><g id="edge35" class="edge"><title>S-&gt;S</title><path fill="none" stroke="#000" d="M1241.3041,-1341.0781C1237.274,-1365.4094 1238.7922,-1395 1245.8586,-1395 1251.9589,-1395 1253.9243,-1372.9475 1251.755,-1351.2636"/><polygon fill="#000" stroke="#000" points="1255.189 -1350.535 1250.413 -1341.078 1248.249 -1351.45 1255.189 -1350.535"/><text x="1229.145" y="-1399.2" fill="#00f" font-family="Times,serif" font-size="14" text-anchor="start">return</text></g><g id="edge45" class="edge"><title>S-&gt;S</title><path fill="none" stroke="#000" d="M1240.6428,-1341.1124C1234.2294,-1372.2398 1235.968,-1413 1245.8586,-1413 1254.7061,-1413 1257.0304,-1380.3843 1252.8316,-1351.2236"/><polygon fill="#000" stroke="#000" points="1256.235 -1350.365 1251.074 -1341.112 1249.338 -1351.564 1256.235 -1350.365"/><text x="1228.76" y="-1417.2" fill="#00f" font-family="Times,serif" font-size="14" text-anchor="start">where</text></g><g id="edge54" class="edge"><title>S-&gt;S</title><path fill="none" stroke="#000" d="M1240.1704,-1341.0577C1231.1891,-1378.7886 1233.0852,-1431 1245.8586,-1431 1257.5343,-1431 1260.1219,-1387.3768 1253.6213,-1351.0637"/><polygon fill="#000" stroke="#000" points="1257.004 -1350.139 1251.547 -1341.058 1250.15 -1351.56 1257.004 -1350.139"/><text x="1231.091" y="-1435.2" fill="#00f" font-family="Times,serif" font-size="14" text-anchor="start">order</text></g><g id="edge61" class="edge"><title>S-&gt;S</title><path fill="none" stroke="#000" d="M1239.795,-1341.066C1228.1577,-1385.2604 1230.1789,-1449 1245.8586,-1449 1260.4052,-1449 1263.196,-1394.1399 1254.2312,-1350.922"/><polygon fill="#000" stroke="#000" points="1257.611 -1350.004 1251.922 -1341.066 1250.795 -1351.601 1257.611 -1350.004"/><text x="1232.632" y="-1453.2" fill="#00f" font-family="Times,serif" font-size="14" text-anchor="start">limit</text></g><g id="edge68" class="edge"><title>S-&gt;S</title><path fill="none" stroke="#000" d="M1239.4354,-1341.2856C1225.1375,-1391.8502 1227.2785,-1467 1245.8586,-1467 1263.2774,-1467 1266.2479,-1400.9504 1254.77,-1351.0302"/><polygon fill="#000" stroke="#000" points="1258.147 -1350.109 1252.282 -1341.286 1251.365 -1351.841 1258.147 -1350.109"/><text x="1229.923" y="-1471.2" fill="#00f" font-family="Times,serif" font-size="14" text-anchor="start">offset</text></g><g id="edge75" class="edge"><title>S-&gt;S</title><path fill="none" stroke="#000" d="M1239.177,-1341.3257C1222.1158,-1398.2021 1224.343,-1485 1245.8586,-1485 1266.1556,-1485 1269.2872,-1407.7562 1255.2536,-1351.2571"/><polygon fill="#000" stroke="#000" points="1258.552 -1350.05 1252.54 -1341.326 1251.8 -1351.895 1258.552 -1350.05"/><text x="1229.528" y="-1489.2" fill="#00f" font-family="Times,serif" font-size="14" text-anchor="start">group</text></g><g id="edge82" class="edge"><title>S-&gt;S</title><path fill="none" stroke="#000" d="M1238.9768,-1341.3087C1219.0959,-1404.4453 1221.3899,-1503 1245.8586,-1503 1269.0848,-1503 1272.3311,-1414.2006 1255.5976,-1351.1836"/><polygon fill="#000" stroke="#000" points="1258.882 -1349.942 1252.74 -1341.309 1252.158 -1351.888 1258.882 -1349.942"/><text x="1226.806" y="-1507.2" fill="#00f" font-family="Times,serif" font-size="14" text-anchor="start">having</text></g><g id="edge16" class="edge"><title>I-&gt;I</title><path fill="none" stroke="#000" d="M1022.8689,-272.1527C1022.1174,-281.5391 1023.7456,-290 1027.7534,-290 1030.1957,-290 1031.7543,-286.8581 1032.4292,-282.2796"/><polygon fill="#000" stroke="#000" points="1035.931 -282.223 1032.638 -272.153 1028.932 -282.078 1035.931 -282.223"/><text x="1015.309" y="-294.2" fill="#00f" font-family="Times,serif" font-size="14" text-anchor="start">with</text></g><g id="edge26" class="edge"><title>I-&gt;I</title><path fill="none" stroke="#000" d="M1019.5664,-272.2576C1015.3213,-289.4023 1018.0503,-308 1027.7534,-308 1035.5614,-308 1038.8535,-295.9576 1037.6297,-282.3202"/><polygon fill="#000" stroke="#000" points="1041.048 -281.54 1035.94 -272.258 1034.144 -282.699 1041.048 -281.54"/><text x="1014.148" y="-312.2" fill="#00f" font-family="Times,serif" font-size="14" text-anchor="start">from</text></g><g id="edge36" class="edge"><title>I-&gt;I</title><path fill="none" stroke="#000" d="M1017.5057,-272.0781C1008.4381,-296.4094 1011.854,-326 1027.7534,-326 1041.6033,-326 1045.9806,-303.5465 1040.8854,-281.675"/><polygon fill="#000" stroke="#000" points="1044.231 -280.647 1038.001 -272.078 1037.527 -282.662 1044.231 -280.647"/><text x="1011.04" y="-330.2" fill="#00f" font-family="Times,serif" font-size="14" text-anchor="start">return</text></g><g id="edge86" class="edge"><title>I-&gt;I</title><path fill="none" stroke="#000" d="M1016.0179,-272.1124C1001.5877,-303.2398 1005.4995,-344 1027.7534,-344 1047.8341,-344 1052.9802,-310.8121 1043.1917,-281.4604"/><polygon fill="#000" stroke="#000" points="1046.426 -280.121 1039.489 -272.112 1039.918 -282.699 1046.426 -280.121"/><text x="1012.203" y="-348.2" fill="#00f" font-family="Times,serif" font-size="14" text-anchor="start">insert</text></g><g id="edge17" class="edge"><title>U-&gt;U</title><path fill="none" stroke="#000" d="M1241.951,-391.1527C1241.3498,-400.5391 1242.6524,-409 1245.8586,-409 1247.8124,-409 1249.0593,-405.8581 1249.5993,-401.2796"/><polygon fill="#000" stroke="#000" points="1253.101 -401.209 1249.766 -391.153 1246.102 -401.094 1253.101 -401.209"/><text x="1233.415" y="-413.2" fill="#00f" font-family="Times,serif" font-size="14" text-anchor="start">with</text></g><g id="edge27" class="edge"><title>U-&gt;U</title><path fill="none" stroke="#000" d="M1239.309,-391.2576C1235.9129,-408.4023 1238.0961,-427 1245.8586,-427 1252.105,-427 1254.7387,-414.9576 1253.7596,-401.3202"/><polygon fill="#000" stroke="#000" points="1257.208 -400.703 1252.408 -391.258 1250.271 -401.635 1257.208 -400.703"/><text x="1232.253" y="-431.2" fill="#00f" font-family="Times,serif" font-size="14" text-anchor="start">from</text></g><g id="edge37" class="edge"><title>U-&gt;U</title><path fill="none" stroke="#000" d="M1237.6605,-391.0781C1230.4064,-415.4094 1233.1391,-445 1245.8586,-445 1256.8888,-445 1260.4088,-422.7475 1256.4186,-400.9693"/><polygon fill="#000" stroke="#000" points="1259.784 -399.992 1254.057 -391.078 1252.975 -401.618 1259.784 -399.992"/><text x="1229.145" y="-449.2" fill="#00f" font-family="Times,serif" font-size="14" text-anchor="start">return</text></g><g id="edge46" class="edge"><title>U-&gt;U</title><path fill="none" stroke="#000" d="M1236.4702,-391.1124C1224.926,-422.2398 1228.0555,-463 1245.8586,-463 1261.8536,-463 1266.0042,-430.0988 1258.3103,-400.8418"/><polygon fill="#000" stroke="#000" points="1261.589 -399.6 1255.247 -391.112 1254.912 -401.702 1261.589 -399.6"/><text x="1228.76" y="-467.2" fill="#00f" font-family="Times,serif" font-size="14" text-anchor="start">where</text></g><g id="edge95" class="edge"><title>U-&gt;U</title><path fill="none" stroke="#000" d="M1235.6199,-391.0577C1219.4535,-428.7886 1222.8664,-481 1245.8586,-481 1266.9647,-481 1271.572,-437.0032 1259.6805,-400.5985"/><polygon fill="#000" stroke="#000" points="1262.89 -399.189 1256.097 -391.058 1256.337 -401.65 1262.89 -399.189"/><text x="1238.084" y="-485.2" fill="#00f" font-family="Times,serif" font-size="14" text-anchor="start">set</text></g><g id="edge18" class="edge"><title>D-&gt;D</title><path fill="none" stroke="#000" d="M1241.951,-615.1527C1241.3498,-624.5391 1242.6524,-633 1245.8586,-633 1247.8124,-633 1249.0593,-629.8581 1249.5993,-625.2796"/><polygon fill="#000" stroke="#000" points="1253.101 -625.209 1249.766 -615.153 1246.102 -625.094 1253.101 -625.209"/><text x="1233.415" y="-637.2" fill="#00f" font-family="Times,serif" font-size="14" text-anchor="start">with</text></g><g id="edge28" class="edge"><title>D-&gt;D</title><path fill="none" stroke="#000" d="M1239.309,-615.2576C1235.9129,-632.4023 1238.0961,-651 1245.8586,-651 1252.105,-651 1254.7387,-638.9576 1253.7596,-625.3202"/><polygon fill="#000" stroke="#000" points="1257.208 -624.703 1252.408 -615.258 1250.271 -625.635 1257.208 -624.703"/><text x="1232.253" y="-655.2" fill="#00f" font-family="Times,serif" font-size="14" text-anchor="start">from</text></g><g id="edge38" class="edge"><title>D-&gt;D</title><path fill="none" stroke="#000" d="M1237.6605,-615.0781C1230.4064,-639.4094 1233.1391,-669 1245.8586,-669 1256.8888,-669 1260.4088,-646.7475 1256.4186,-624.9693"/><polygon fill="#000" stroke="#000" points="1259.784 -623.992 1254.057 -615.078 1252.975 -625.618 1259.784 -623.992"/><text x="1229.145" y="-673.2" fill="#00f" font-family="Times,serif" font-size="14" text-anchor="start">return</text></g><g id="edge47" class="edge"><title>D-&gt;D</title><path fill="none" stroke="#000" d="M1236.4702,-615.1124C1224.926,-646.2398 1228.0555,-687 1245.8586,-687 1261.8536,-687 1266.0042,-654.0988 1258.3103,-624.8418"/><polygon fill="#000" stroke="#000" points="1261.589 -623.6 1255.247 -615.112 1254.912 -625.702 1261.589 -623.6"/><text x="1228.76" y="-691.2" fill="#00f" font-family="Times,serif" font-size="14" text-anchor="start">where</text></g><g id="edge101" class="edge"><title>D-&gt;D</title><path fill="none" stroke="#000" d="M1235.6199,-615.0577C1219.4535,-652.7886 1222.8664,-705 1245.8586,-705 1266.9647,-705 1271.572,-661.0032 1259.6805,-624.5985"/><polygon fill="#000" stroke="#000" points="1262.89 -623.189 1256.097 -615.058 1256.337 -625.65 1262.89 -623.189"/><text x="1229.146" y="-709.2" fill="#00f" font-family="Times,serif" font-size="14" text-anchor="start">delete</text></g><g id="edge89" class="edge"><title>V-&gt;V</title><path fill="none" stroke="#000" d="M1226.3205,-1042.1527C1223.3147,-1051.5391 1229.8274,-1060 1245.8586,-1060 1255.6276,-1060 1261.8621,-1056.8581 1264.5619,-1052.2796"/><polygon fill="#000" stroke="#000" points="1268.063 -1052.407 1265.397 -1042.153 1261.087 -1051.831 1268.063 -1052.407"/><text x="1227.976" y="-1064.2" fill="#00f" font-family="Times,serif" font-size="14" text-anchor="start">values</text></g></g></svg>